<svg width="22" height="21" viewBox="0 0 22 21" fill="none" xmlns="http://www.w3.org/2000/svg">
<path d="M0.923678 10.6673L0.851984 10.6328C0.69368 10.5428 0.566001 10.4069 0.485621 10.2426C0.370425 10.041 0.309017 9.81281 0.307373 9.5802L0.324474 9.46627C0.324474 9.29006 0.369201 9.13173 0.44813 8.98003L0.519824 8.84887C0.554027 8.77667 0.60533 8.7144 0.650057 8.65544C0.674361 8.6262 0.691152 8.59139 0.698952 8.55408C0.706751 8.51677 0.70532 8.4781 0.694783 8.44147L0.650057 8.29971C0.596713 8.12873 0.567919 7.95094 0.56455 7.77175L0.536925 7.66509C0.536925 7.46835 0.588229 7.27492 0.711885 7.13382L0.80068 7.01988C0.862508 6.93045 0.958538 6.87812 1.06443 6.84367C1.14994 6.81585 1.21177 6.72642 1.22229 6.62308L1.23939 6.32299C1.23939 6.08518 1.35253 5.86392 1.52749 5.70163L1.73994 5.54264C1.78137 5.50091 1.82544 5.45652 1.85965 5.38366C1.90437 5.33199 1.91424 5.25912 1.90437 5.20745C1.88727 5.12133 1.90437 5.09351 1.9491 5.08291C2.08986 5.13789 2.17865 5.12067 2.24048 5.04846L2.35361 4.90008L2.66867 4.54501C2.71442 4.49684 2.74526 4.4363 2.75741 4.37077C2.76955 4.30525 2.76249 4.23758 2.73707 4.17603L2.63447 3.94484C2.61737 3.89317 2.63447 3.8309 2.67919 3.81368C2.79232 3.81368 2.87125 3.85541 2.90546 3.92762L2.93966 3.98988C2.99425 4.09654 3.11791 4.14887 3.20341 4.10382C3.36364 4.04543 3.53291 4.01627 3.7033 4.01771H3.98415C4.17622 4.01771 4.33342 3.88323 4.37156 3.67986C4.40577 3.43476 4.49127 3.23802 4.61493 3.10685C4.74845 2.95516 4.89579 2.84122 5.07075 2.75179C5.3003 2.63122 5.44105 2.4517 5.48512 2.22382C5.54695 1.94096 5.69428 1.73759 5.89621 1.60643L6.56448 1.22685L6.75654 1.1096C6.86967 1.04071 6.97557 0.950616 7.06502 0.843964L7.23998 0.633308C7.31511 0.548935 7.41252 0.487821 7.52084 0.457099C7.60634 0.429277 7.73 0.412054 7.83589 0.422653L8.18516 0.4465C8.36012 0.4465 8.50021 0.491546 8.64097 0.553153L8.72977 0.598199C8.81856 0.632646 8.90473 0.615422 8.9488 0.553153L9.02772 0.508107L9.40461 0.111306C9.44322 0.0691638 9.49163 0.0373519 9.54547 0.0187344C9.59932 0.00011686 9.65692 -0.00472185 9.71309 0.00465382C9.82622 0.0218772 9.93936 0.0669231 10.0453 0.121905C10.2031 0.208022 10.3333 0.242469 10.484 0.242469H10.5728C10.7648 0.242469 10.9562 0.270292 11.1516 0.314675L11.2818 0.349122C11.3457 0.364942 11.4129 0.36158 11.4749 0.339451C11.537 0.317323 11.5913 0.277394 11.6311 0.224583C11.6372 0.214258 11.6456 0.205455 11.6556 0.198819C11.6656 0.192182 11.677 0.187881 11.6888 0.18623C11.7007 0.184578 11.7127 0.185619 11.7241 0.189275C11.7356 0.192931 11.746 0.19911 11.7547 0.20736C11.7824 0.224583 11.7889 0.241807 11.7995 0.269629C11.8166 0.445838 11.9231 0.580313 12.0632 0.621384L12.204 0.66643C12.3513 0.711476 12.4848 0.808192 12.5703 0.932068C12.6591 1.06323 12.7657 1.19771 12.8854 1.28382L12.9742 1.37325C13.0177 1.41579 13.0701 1.44807 13.1276 1.46777C13.185 1.48748 13.2461 1.49411 13.3063 1.48719H13.8233C14.0358 1.48719 14.2377 1.52495 14.4403 1.61173C14.6323 1.70116 14.8343 1.71838 15.0158 1.64618C15.2112 1.58722 15.4131 1.56006 15.615 1.58722L15.9919 1.64618C16.1669 1.66671 16.3412 1.75283 16.4477 1.88797L16.4924 1.9297C16.578 2.01913 16.6674 2.13307 16.7529 2.25761C16.7815 2.31193 16.8244 2.35718 16.8771 2.3883C16.9297 2.41942 16.9899 2.43518 17.0509 2.43382H17.5955C17.729 2.43382 17.8592 2.46164 17.9658 2.52325C18.0789 2.60936 18.175 2.69945 18.2637 2.78888L18.3493 2.90282C18.4551 3.02736 18.5071 3.19297 18.4999 3.37183C18.4999 3.51359 18.6058 3.63416 18.7432 3.63416L18.9215 3.65469C19.0451 3.65469 19.1478 3.74081 19.2096 3.85475L19.2984 4.03427L19.5246 4.54501C19.5576 4.62334 19.5705 4.70876 19.5621 4.79342C19.5621 4.87954 19.5858 4.95241 19.6476 4.98685L19.7364 5.04912C19.793 5.09177 19.8374 5.14873 19.8652 5.21422C19.8929 5.27971 19.9029 5.35142 19.8943 5.42208L19.8325 5.8361L19.8154 6.01231C19.8082 6.06206 19.8142 6.11284 19.8328 6.1595C19.8514 6.20615 19.8819 6.24702 19.9213 6.27795C20.0515 6.36407 20.1133 6.48132 20.1199 6.61248V6.78869C20.1199 6.87812 20.1028 6.98543 20.0344 7.05433C19.9759 7.13025 19.9446 7.22386 19.9456 7.31996L19.9732 7.52333C19.9732 7.66509 20.0587 7.78897 20.1482 7.87509C20.2066 7.91977 20.2555 7.9758 20.292 8.03987C20.3284 8.10393 20.3518 8.17472 20.3606 8.24804C20.3948 8.46863 20.4021 8.64484 20.4021 8.82105V9.02442C20.4021 9.09662 20.4021 9.16618 20.4297 9.23507C20.4493 9.29994 20.4889 9.3568 20.5428 9.39737L20.7178 9.52853C20.896 9.64247 21.019 9.79417 21.0881 9.99754C21.1769 10.191 21.2012 10.3943 21.2012 10.5977V10.6666C21.2012 10.8256 21.1841 10.9945 21.1328 11.1429C21.0884 11.2883 21.0968 11.445 21.1565 11.5847C21.2282 11.7093 21.2729 11.8504 21.29 12.0021C21.3242 12.1783 21.3071 12.3538 21.2453 12.4956L21.2282 12.5579C21.1826 12.6661 21.1136 12.7628 21.0263 12.8407C20.9375 12.9302 20.8513 12.9825 20.8 13.0441C20.7454 13.0958 20.7112 13.1859 20.7382 13.2647L20.7619 13.3892C20.8066 13.5654 20.8066 13.741 20.7619 13.9V13.9722C20.7277 14.1033 20.6763 14.2173 20.6211 14.3239C20.562 14.4362 20.4714 14.5286 20.3606 14.5896L20.2271 14.6757C20.1948 14.6972 20.1682 14.7264 20.1497 14.7607C20.1313 14.795 20.1215 14.8334 20.1212 14.8724C20.1218 14.9565 20.0914 15.0377 20.0357 15.1003L19.9022 15.2798C19.8167 15.3938 19.7035 15.4905 19.5799 15.5422C19.4686 15.6203 19.3653 15.7092 19.2714 15.8078C19.1834 15.9113 19.118 16.0323 19.0793 16.1629C19.0674 16.2318 19.0315 16.2943 18.9782 16.3391C18.9249 16.384 18.8575 16.4084 18.788 16.408H18.3151C18.1914 16.408 18.0789 16.4974 18.027 16.6047C17.9775 16.7232 17.9093 16.8328 17.825 16.9293C17.7405 17.0186 17.6792 17.1276 17.6468 17.2466C17.6297 17.3533 17.5442 17.4261 17.4547 17.3884C17.4052 17.3656 17.3491 17.3621 17.2972 17.3787C17.2453 17.3952 17.2014 17.4305 17.1739 17.4778C17.0852 17.6328 16.9769 17.7756 16.8516 17.9024L16.7897 17.9541C16.6733 18.0435 16.526 18.1131 16.3925 18.1131C16.2346 18.1131 16.1563 18.1853 16.132 18.2893C16.1043 18.3885 16.086 18.49 16.0774 18.5927C16.0586 18.692 16.03 18.7892 15.9919 18.8828L15.9472 18.9345C15.8584 19.069 15.7893 19.2001 15.7005 19.3141L15.6663 19.3691C15.5532 19.5174 15.4026 19.6347 15.2276 19.6764C15.0411 19.7393 14.8454 19.7695 14.6488 19.7659H14.5251C14.4774 19.7687 14.431 19.783 14.3899 19.8077C14.3488 19.8324 14.3142 19.8666 14.289 19.9076L14.2377 19.9971L14.1831 20.1004L14.07 20.2971C14.0284 20.3736 13.9721 20.441 13.9045 20.4955C13.8369 20.5499 13.7592 20.5904 13.676 20.6144C13.4923 20.6596 13.303 20.677 13.1143 20.6661L12.9735 20.6489C12.8499 20.6489 12.7374 20.6144 12.6243 20.5595C12.5355 20.525 12.4118 20.5595 12.3605 20.6489C12.2855 20.7578 12.1772 20.839 12.052 20.8801L11.7883 20.9662C11.607 21.0113 11.4177 21.0113 11.2364 20.9662L11.0957 20.9212C11.0073 20.9149 10.9222 20.8852 10.849 20.835C10.7692 20.792 10.6788 20.7729 10.5885 20.7801L10.4721 20.8006C10.2972 20.8178 10.14 20.8006 9.98211 20.7555L9.74598 20.7006C9.63697 20.6663 9.54353 20.5942 9.48222 20.4972C9.45506 20.449 9.41703 20.408 9.37122 20.3774C9.3254 20.3468 9.27307 20.3275 9.21847 20.321H8.93761C8.76265 20.2971 8.60545 20.2349 8.4989 20.1004L8.14964 19.7659L8.02598 19.6592L7.83392 19.5174L7.72079 19.4313C7.58408 19.3362 7.42658 19.2758 7.26169 19.2551L6.73746 19.1657C6.68287 19.1657 6.64867 19.1485 6.59671 19.1379L6.39478 19.0928C6.30599 19.0756 6.21982 19.0067 6.15865 18.9166C6.10735 18.8305 6.00803 18.7921 5.92252 18.8305C5.74756 18.8994 5.60746 18.9166 5.46671 18.9444H5.34305C5.11986 18.9638 4.89549 18.9246 4.69189 18.8305C4.48272 18.7411 4.34262 18.6099 4.21239 18.4403C4.1594 18.3622 4.09153 18.2954 4.01272 18.2439C3.93391 18.1924 3.84572 18.1572 3.75329 18.1402L3.50992 18.0886C3.32782 18.0506 3.15458 17.978 2.99951 17.8746C2.82455 17.7501 2.73576 17.6368 2.66735 17.495C2.59615 17.358 2.55404 17.2075 2.5437 17.0532V16.9843C2.5266 16.8048 2.40294 16.6464 2.23851 16.6047C2.0604 16.5524 1.89568 16.4617 1.75572 16.3391C1.69378 16.28 1.64449 16.2088 1.61089 16.1299C1.5773 16.0509 1.5601 15.9659 1.56037 15.88L1.58076 15.4898C1.58076 15.3381 1.53604 15.207 1.43014 15.1102C1.32424 15.0036 1.25518 14.8724 1.25518 14.7307L1.22756 14.4134C1.20654 14.1808 1.16873 13.9501 1.11442 13.7231C1.06312 13.5197 1.14205 13.3157 1.30648 13.2196L1.36831 13.1746C1.41266 13.1445 1.44447 13.0991 1.45769 13.0469C1.47091 12.9948 1.46462 12.9395 1.44001 12.8917L1.36831 12.8056C1.29737 12.7245 1.20637 12.6637 1.10456 12.6294C1.03615 12.6089 1.01905 12.54 1.01905 12.4949L1.10456 12.3883C1.12871 12.3586 1.14191 12.3214 1.14191 12.283C1.14191 12.2446 1.12871 12.2073 1.10456 12.1776C1.0407 12.1096 1.00092 12.0223 0.991425 11.9292L0.974324 11.3118C0.974324 11.1873 0.991425 11.0634 1.02563 10.9428C1.06312 10.8362 1.02563 10.7116 0.92302 10.66L0.923678 10.6673ZM9.60456 9.50071C9.66639 9.43844 9.65587 9.3245 9.60456 9.28012C9.52207 9.21533 9.45339 9.13444 9.40264 9.0423L9.31384 8.90054C9.25456 8.78915 9.1782 8.68788 9.08758 8.60046L9.07048 8.58323C8.98325 8.51202 8.91405 8.42098 8.86855 8.3176C8.84656 8.27683 8.83504 8.23117 8.83504 8.18478C8.83504 8.13838 8.84656 8.09273 8.86855 8.05196L8.91985 7.96584C8.97607 7.86953 9.00665 7.76024 9.00865 7.64853V7.61077C9.00414 7.51666 8.97337 7.42574 8.91985 7.34845C8.88118 7.26956 8.85245 7.18611 8.83435 7.10003V7.04836C8.82157 6.99475 8.82109 6.9389 8.83295 6.88507C8.8448 6.83124 8.86867 6.78083 8.90275 6.73768C8.97445 6.62374 9.02641 6.51709 9.05338 6.38593V6.36539C9.06898 6.31727 9.07371 6.26624 9.06722 6.21604C9.06074 6.16584 9.0432 6.11774 9.01589 6.07524C8.98924 6.0338 8.97232 5.98679 8.96639 5.93778C8.96046 5.88878 8.96569 5.83905 8.98168 5.79238L9.04351 5.61617C9.09481 5.45719 9.17703 5.31609 9.27964 5.19155L9.4033 5.06039L9.49209 4.95373L9.54339 4.90206C9.56935 4.87333 9.58511 4.83674 9.5882 4.79802C9.5913 4.7593 9.58155 4.72064 9.5605 4.68809C9.51409 4.60793 9.49601 4.5143 9.50919 4.42246L9.52629 4.29792C9.55392 4.12171 9.61509 3.94616 9.72822 3.8044L9.76242 3.76995C9.89266 3.59375 10.0604 3.47649 10.2524 3.41489L10.4925 3.32877C10.5951 3.29432 10.6675 3.17707 10.6675 3.06313C10.6675 2.92137 10.7122 2.7975 10.7905 2.68356L10.8319 2.63851C10.9207 2.49012 11.0273 2.33843 11.0957 2.17944L11.1575 2.0655C11.1743 2.03861 11.1838 2.00779 11.1851 1.97607C11.1851 1.82768 11.0963 1.69321 10.9556 1.68592L10.5721 1.6581C10.3531 1.64088 10.1334 1.6581 9.92094 1.6581L9.17769 1.74753C9.06127 1.74753 8.97576 1.83365 8.96524 1.95819C8.96392 2.0169 8.94481 2.0738 8.91049 2.12128C8.87616 2.16875 8.82825 2.20453 8.77318 2.22382L8.45812 2.30994L8.36932 2.33776L8.10557 2.42719C8.0091 2.45905 7.92028 2.51078 7.84475 2.57909C7.76922 2.64741 7.70863 2.73081 7.66685 2.82399L7.59845 2.93793C7.50814 3.13355 7.36116 3.29705 7.17684 3.40694C7.00188 3.52088 6.91308 3.70702 6.89598 3.91768V4.00711C6.87888 4.18332 6.82429 4.35886 6.72102 4.4834L6.67629 4.55561C6.64152 4.5963 6.61887 4.64606 6.61095 4.69915C6.60304 4.75225 6.61019 4.80651 6.63157 4.85569C6.67629 4.95903 6.70326 5.07628 6.6934 5.19022V5.65923C6.69204 5.71519 6.67486 5.7696 6.64387 5.81607C6.61288 5.86254 6.56936 5.89913 6.51844 5.92156C6.46034 5.94272 6.40836 5.97806 6.36715 6.02442C6.32594 6.07078 6.29679 6.12671 6.28231 6.18719L6.23758 6.3634C6.21893 6.44926 6.22554 6.53873 6.25662 6.62086C6.28769 6.70299 6.34188 6.77421 6.41254 6.82578C6.5533 6.92913 6.64209 7.08811 6.67629 7.28485V7.44384C6.70392 7.62005 6.79995 7.7956 6.95715 7.88569C7.11501 7.99234 7.23801 8.15132 7.30641 8.32753L7.35114 8.46929C7.38077 8.55664 7.43461 8.63362 7.50629 8.69113C7.57797 8.74865 7.6645 8.78431 7.75565 8.79389H7.80695C7.96481 8.79389 8.10491 8.88332 8.19436 9.02508C8.27987 9.16684 8.42063 9.2629 8.57783 9.29072L8.82448 9.35961C8.9751 9.40466 9.11586 9.48415 9.22899 9.59743L9.24609 9.61796C9.29258 9.65253 9.35043 9.66788 9.40779 9.66085C9.46515 9.65383 9.51767 9.62498 9.55458 9.5802L9.6164 9.51131L9.60456 9.50071ZM10.6043 8.68989C10.6898 8.74156 10.7793 8.71373 10.8135 8.6349L10.8411 8.59317C10.9029 8.46863 10.9819 8.34476 11.0674 8.2381L11.2456 7.97247C11.2693 7.97247 11.2798 7.95524 11.2871 7.93802L11.4995 7.65516C11.5883 7.56904 11.6916 7.50677 11.8146 7.50677C11.8709 7.50706 11.9261 7.49045 11.9731 7.45908C12.02 7.4277 12.0567 7.38297 12.0783 7.33056C12.1125 7.20602 12.1638 7.08877 12.2704 6.99272L12.3151 6.94105C12.4039 6.85162 12.4901 6.80657 12.5789 6.76484C12.692 6.74762 12.7979 6.72708 12.9045 6.72708H13.1649C13.2708 6.72708 13.3603 6.68535 13.4116 6.59592C13.4629 6.50649 13.5418 6.44753 13.6306 6.40249L13.7194 6.36473C13.8602 6.30577 14.0174 6.26139 14.1752 6.24416L14.3502 6.22694C14.4561 6.22694 14.5692 6.22694 14.6758 6.2859C14.7613 6.34817 14.8777 6.34088 14.9639 6.26867L15.0257 6.23423C15.1559 6.1448 15.3065 6.07524 15.4644 6.05802H15.4815C15.6499 6.02822 15.8213 6.01888 15.9919 6.0302H16.0774C16.2524 6.05802 16.403 6.11963 16.5161 6.25079L16.5437 6.28523C16.6325 6.37466 16.77 6.44753 16.893 6.44753H17.0436C17.0884 6.44753 17.1291 6.427 17.1568 6.38526C17.1865 6.35357 17.2268 6.33399 17.2699 6.33028H17.3587C17.4823 6.33028 17.5948 6.36473 17.708 6.40249L17.8586 6.46476C17.9993 6.50649 18.1467 6.55087 18.2973 6.5681H18.4032C18.4716 6.5681 18.5163 6.52636 18.5163 6.46476C18.5196 6.37771 18.4981 6.29153 18.4545 6.21634L18.3927 6.07458C18.3243 5.96064 18.269 5.83676 18.2177 5.72282L18.2006 5.67778C18.1786 5.63701 18.1671 5.59135 18.1671 5.54496C18.1671 5.49856 18.1786 5.45291 18.2006 5.41214V5.3671C18.2093 5.33188 18.2051 5.29469 18.1888 5.26234C18.1725 5.22998 18.1452 5.20462 18.1118 5.19089H18.0434C17.9048 5.14907 17.782 5.0662 17.6909 4.95307L17.6053 4.86364C17.5166 4.77752 17.4646 4.64305 17.4271 4.51189C17.3857 4.39795 17.2903 4.30852 17.1666 4.30852H16.7963C16.7321 4.29942 16.6703 4.27765 16.6144 4.24446C16.5585 4.21126 16.5097 4.1673 16.4707 4.11509L16.4365 4.07004C16.3732 3.97777 16.3236 3.87667 16.2892 3.76995C16.2445 3.68053 16.1484 3.62819 16.0597 3.65602L15.9538 3.69046C15.7788 3.75273 15.6045 3.77658 15.4295 3.75936L15.2888 3.74213C15.1382 3.74213 14.9974 3.67986 14.8843 3.59375L14.7955 3.53148C14.7287 3.47966 14.655 3.43773 14.5764 3.40694C14.4909 3.37249 14.4186 3.38972 14.3673 3.45198L14.3226 3.50365C14.2336 3.5969 14.1171 3.6587 13.9904 3.67986L13.5175 3.70769C13.428 3.71107 13.3434 3.7493 13.2813 3.81434C13.2135 3.87542 13.1306 3.91705 13.0413 3.9349H13.0242C12.9387 3.9349 12.8492 3.99717 12.7637 4.05944V4.07666C12.7222 4.11923 12.6726 4.15304 12.618 4.17613C12.5633 4.19922 12.5046 4.21112 12.4454 4.21114L12.4112 4.22836C12.3053 4.22836 12.202 4.22836 12.0961 4.25618H11.9902C11.8429 4.28003 11.7264 4.40457 11.6922 4.56356L11.658 4.76693C11.6299 4.90545 11.57 5.03543 11.4831 5.1465C11.3943 5.25316 11.2877 5.32271 11.1575 5.32271H11.0102C10.9214 5.34325 10.8319 5.43996 10.849 5.5433C10.8694 5.695 10.849 5.82616 10.8253 5.96064L10.7911 6.10903C10.776 6.17188 10.7464 6.23026 10.7047 6.27941C10.663 6.32856 10.6104 6.3671 10.5511 6.39189L10.4998 6.41971H10.4827C10.4313 6.45416 10.3939 6.53365 10.4379 6.59592C10.4885 6.67457 10.5103 6.76847 10.4998 6.86156L10.4721 7.14442C10.4665 7.24653 10.4372 7.3459 10.3866 7.43457C10.3614 7.47367 10.3466 7.51862 10.3436 7.56514C10.3406 7.61165 10.3496 7.65815 10.3695 7.7002L10.455 7.89364C10.5001 7.98082 10.51 8.08215 10.4827 8.1765C10.4526 8.26158 10.441 8.35215 10.4484 8.44213C10.4484 8.53156 10.4998 8.61834 10.5721 8.6561L10.6043 8.68989ZM17.5317 15.0765C17.6205 15.1626 17.7507 15.197 17.8573 15.1281L18.0322 15.0142C18.1244 14.9503 18.1922 14.8565 18.2243 14.7486V14.7313L18.3131 14.4657L18.3644 14.3763L18.4019 14.2901L18.4361 14.2279C18.4521 14.191 18.4762 14.1583 18.5064 14.132C18.5367 14.1057 18.5725 14.0867 18.611 14.0762L18.6452 14.059C18.7169 14.0417 18.7617 13.9728 18.7617 13.9C18.7617 13.8138 18.8031 13.741 18.8472 13.6794L18.9189 13.6171L19.0938 13.3892V13.372C19.145 13.2994 19.181 13.2172 19.1997 13.1302C19.2142 13.041 19.2012 12.9494 19.1622 12.8679L19.1451 12.8301C19.1144 12.7573 19.0936 12.6807 19.0833 12.6022L19.0596 12.3538L19.032 12.0882C19.032 12.0021 19.0662 11.912 19.1208 11.8259C19.1793 11.7537 19.2234 11.6636 19.2615 11.5775V11.543L19.2786 11.5258C19.2957 11.4364 19.251 11.3463 19.1727 11.3463C19.084 11.3045 18.9978 11.2323 18.9708 11.1257L18.9432 11.074C18.9002 10.9189 18.8772 10.7588 18.8748 10.5977L18.8919 10.1559V10.128C18.8912 10.0578 18.8632 9.99064 18.8139 9.94097C18.7646 9.8913 18.6979 9.86309 18.6281 9.8624H18.611C18.5297 9.86562 18.4487 9.8516 18.3731 9.82124C18.2975 9.79089 18.2291 9.74488 18.1723 9.68619L18.1039 9.59677L17.9257 9.39671L17.6994 9.13107C17.6148 9.00806 17.5171 8.89477 17.408 8.79323C17.3225 8.70711 17.189 8.61702 17.0588 8.5998L16.8838 8.57197C16.7781 8.55001 16.6772 8.50917 16.5858 8.45141C16.5142 8.39643 16.4109 8.41365 16.3392 8.48586L16.2261 8.61039L16.1715 8.64484C16.1096 8.66206 16.0518 8.62762 16.0241 8.55541C15.9871 8.44581 15.9932 8.32606 16.0412 8.22088V8.16921C16.0412 8.10694 15.9899 8.06256 15.9353 8.07978H15.7946C15.636 8.08567 15.4782 8.05627 15.3322 7.99366L15.2434 7.95591C15.1538 7.9111 15.0553 7.88753 14.9553 7.88701C14.8627 7.88493 14.7714 7.90879 14.6915 7.95591L14.6573 7.98373C14.5515 8.0515 14.4301 8.09074 14.3048 8.09767H14.0167C13.8895 8.09635 13.7655 8.13759 13.6642 8.21492C13.5514 8.28305 13.4273 8.32976 13.2978 8.35271L13.0617 8.39047C12.9458 8.41508 12.8369 8.46581 12.7433 8.53885C12.6578 8.62828 12.5342 8.68061 12.421 8.71506L12.3763 8.7356C12.2325 8.77816 12.1086 8.87123 12.027 8.99792L11.9211 9.10457C11.8911 9.14551 11.8748 9.19508 11.8748 9.246C11.8748 9.29692 11.8911 9.3465 11.9211 9.38743C11.9724 9.47686 12.079 9.50137 12.1849 9.47686L12.3151 9.42188C12.3835 9.39803 12.4657 9.42188 12.5243 9.45633C12.5538 9.48036 12.5878 9.49824 12.6243 9.50893C12.6608 9.51962 12.699 9.52291 12.7367 9.5186L12.9558 9.49475C13.0794 9.49475 13.2024 9.49475 13.3221 9.5292C13.4556 9.57424 13.5688 9.61863 13.6747 9.70541C13.7743 9.7869 13.896 9.8363 14.0239 9.84717C14.1575 9.86439 14.2877 9.89221 14.4113 9.9366L14.4969 9.95382C14.5856 9.98164 14.658 10.0399 14.7093 10.13C14.754 10.2022 14.7948 10.3062 14.7948 10.3957V10.4235C14.7948 10.5268 14.8836 10.5997 14.9731 10.5997H15.0244C15.1651 10.5997 15.3157 10.6169 15.4631 10.662L15.5249 10.6858C15.6194 10.721 15.7015 10.7834 15.761 10.8653C15.8327 10.9515 15.8742 11.0415 15.9018 11.1277L15.9294 11.2522C15.9531 11.3867 15.9636 11.5178 15.9636 11.6596V11.7046C15.9636 11.7908 16.0254 11.8809 16.1215 11.9153C16.2103 11.9325 16.3135 11.9703 16.4129 12.022L16.4543 12.0392C16.5707 12.1081 16.6838 12.1982 16.7694 12.3048L16.8141 12.3671C16.9305 12.4982 16.989 12.6672 16.989 12.8328V12.895C16.989 13.0295 16.9654 13.1607 16.9206 13.2852C16.8864 13.3919 16.9206 13.5164 17.0338 13.5509L17.0956 13.5959C17.2291 13.6476 17.3422 13.7443 17.4278 13.8582C17.5166 13.9927 17.5514 14.1411 17.5514 14.3001V14.5657C17.5343 14.6551 17.51 14.7247 17.4659 14.7863C17.4218 14.8479 17.4212 14.938 17.4659 15.0003L17.5172 15.0864L17.5317 15.0765ZM11.9198 10.5533H11.9027C11.8652 10.5533 11.8481 10.5984 11.858 10.6428L11.8922 10.819C11.9264 10.9607 11.9435 11.1018 11.9639 11.2436C11.981 11.3853 12.0494 11.5059 12.1559 11.5953H12.1902C12.2545 11.6464 12.3074 11.7106 12.3451 11.7839C12.3829 11.8571 12.4047 11.9376 12.4092 12.02V12.4618C12.3921 12.5479 12.4092 12.638 12.4638 12.7102L12.5052 12.752C12.586 12.8531 12.6327 12.9774 12.6387 13.107L12.6624 13.5933C12.6624 13.7072 12.594 13.8039 12.4875 13.8211L12.4019 13.8384C12.3401 13.8384 12.3131 13.9106 12.3131 13.9728C12.3131 14.0417 12.3408 14.1212 12.3645 14.1934V14.2106C12.3921 14.2968 12.4019 14.3869 12.3921 14.4763L12.3579 14.7141C12.3257 14.8868 12.2666 15.0534 12.1829 15.2076L12.1211 15.3143C12.083 15.3915 12.0202 15.4536 11.9428 15.4905C11.9013 15.5077 11.8641 15.534 11.8338 15.5674C11.8035 15.6009 11.781 15.6407 11.7679 15.6839L11.6995 16.0012C11.6497 16.1889 11.5723 16.3679 11.4699 16.5325H11.4528C11.3482 16.6769 11.2138 16.7969 11.0588 16.8843L10.9529 16.9565L10.6892 17.0876C10.6472 17.1071 10.6107 17.1369 10.5832 17.1743C10.5556 17.2117 10.5378 17.2555 10.5313 17.3016L10.4899 17.5917C10.4623 17.7679 10.4011 17.9196 10.2774 18.0336L10.1643 18.1681L10.0308 18.2992L9.90055 18.441C9.79465 18.5655 9.63679 18.6172 9.46183 18.5927L9.14678 18.5304L8.8554 18.4927H8.77647C8.74226 18.5304 8.73503 18.5821 8.75937 18.6344C8.82119 18.7411 8.91722 18.8139 9.02312 18.8139L9.21518 18.8484C9.30398 18.8484 9.41053 18.8934 9.49604 18.9345C9.58483 18.9968 9.671 19.0412 9.77689 19.069H9.79399C9.91041 19.114 10.0301 19.1206 10.1465 19.114L10.2768 19.0935C10.4274 19.0763 10.5682 19.0935 10.6879 19.1485L10.7938 19.1829C10.8385 19.2001 10.9069 19.1829 10.9516 19.1379C11.0018 19.0885 11.0613 19.0498 11.1266 19.0239L11.1983 19.0067C11.3114 18.9723 11.4245 18.9517 11.5475 18.9517H11.6192C11.7218 18.9517 11.8212 18.9723 11.9073 19.0239L11.9415 19.0412C12.0034 19.069 12.075 19.0412 12.1198 18.9895C12.1435 18.9272 12.2053 18.8649 12.2671 18.8133L12.4861 18.6616L12.6269 18.5721L12.6986 18.5304C12.7924 18.4697 12.9021 18.4386 13.0136 18.441L13.3287 18.4132C13.39 18.4053 13.4476 18.3796 13.4945 18.3391C13.5414 18.2986 13.5754 18.2451 13.5925 18.1853C13.6267 18.0508 13.678 17.9196 13.7674 17.8057C13.8562 17.6885 13.9424 17.5917 14.0312 17.5056C14.1298 17.4224 14.2521 17.3728 14.3804 17.3639H14.4521C14.5204 17.3501 14.5816 17.3124 14.6248 17.2574C14.6681 17.2025 14.6905 17.1339 14.6883 17.0638V16.4702C14.7054 16.3841 14.7396 16.2669 14.7909 16.1801L14.9691 15.9144L15.0375 15.825C15.0921 15.78 15.1263 15.7217 15.1881 15.6488L15.2736 15.5349C15.3282 15.4454 15.3282 15.3315 15.2565 15.252C15.1743 15.1585 15.1228 15.0416 15.1092 14.9175V14.8797C15.0884 14.7323 15.0965 14.5822 15.1329 14.4379V14.3961C15.1776 14.2789 15.2388 14.1649 15.3111 14.0583C15.3446 14.017 15.3605 13.9641 15.3553 13.9111C15.3502 13.8581 15.3243 13.8093 15.2835 13.7754L15.1329 13.6443C15.0125 13.5343 14.9378 13.3827 14.9237 13.2196L14.9066 13.0434C14.9066 12.9885 14.9066 12.9295 14.8895 12.8672L14.8724 12.7327C14.8612 12.661 14.8349 12.5926 14.7954 12.5319C14.7558 12.4713 14.7038 12.4198 14.6429 12.381L14.581 12.3638C14.4836 12.3023 14.3996 12.2214 14.3344 12.126C14.266 12.0365 14.2318 11.912 14.2042 11.7881L14.1765 11.6397C14.1765 11.5847 14.1423 11.5503 14.091 11.5258L13.6694 11.3913C13.5806 11.3741 13.4945 11.3052 13.4333 11.2429H13.4162C13.3616 11.1707 13.2754 11.1707 13.2208 11.2224L13.1353 11.3118C13.1182 11.3396 13.0978 11.3463 13.0735 11.3396C13.0189 11.3396 12.9847 11.2946 13.0018 11.2502C13.0117 11.1811 13.0032 11.1106 12.9773 11.0458C12.9515 10.981 12.9091 10.9242 12.8545 10.8812L12.7381 10.7918L12.4776 10.6156C12.4059 10.5878 12.2993 10.6156 12.2651 10.7017L12.2309 10.7567C12.2309 10.7739 12.2033 10.7805 12.1967 10.7911C12.1592 10.7911 12.1079 10.7911 12.1079 10.7461L12.0803 10.701C12.0566 10.6494 11.9948 10.6149 11.9396 10.5977L11.9198 10.5533ZM10.8681 11.4364L10.8234 11.3913C10.7786 11.3569 10.7346 11.3635 10.6898 11.4085C10.6268 11.5136 10.5793 11.6274 10.5491 11.7464V11.7636C10.5254 11.8775 10.4189 11.957 10.313 11.9398H10.2103C10.1514 11.941 10.0953 11.9657 10.0543 12.0083C10.0132 12.051 9.99061 12.1083 9.99132 12.1677C9.99132 12.3267 9.93672 12.4883 9.84069 12.6095L9.78939 12.6645C9.69724 12.7765 9.57476 12.8591 9.43684 12.9023L9.36843 12.9196C9.32369 12.931 9.28326 12.9555 9.25217 12.9899C9.22107 13.0242 9.20066 13.067 9.19348 13.113C9.19348 13.2024 9.13888 13.2925 9.06982 13.3614L8.98102 13.4303C8.87513 13.5475 8.71727 13.6098 8.55941 13.627L8.1207 13.6721C7.97994 13.6721 7.86023 13.7582 7.77144 13.8927C7.68264 14.0238 7.55241 14.1133 7.42217 14.1305L7.22683 14.1477C7.0807 14.1676 6.93225 14.1618 6.78811 14.1305L6.7026 14.1133L6.46253 14.051C6.42563 14.0376 6.38543 14.0364 6.34781 14.0476C6.31019 14.0588 6.2771 14.0818 6.25337 14.1133L6.16457 14.2272C6.11098 14.29 6.04309 14.3389 5.9667 14.3696C5.8903 14.4003 5.80767 14.4119 5.72586 14.4034L5.15691 14.3345C5.06811 14.3345 4.99905 14.2895 4.92078 14.2451C4.83198 14.1934 4.77016 14.1312 4.70833 14.0689L4.4893 13.8033C4.46562 13.786 4.4209 13.7754 4.37617 13.786L4.25251 13.8377L3.76249 13.9622C3.6737 13.9901 3.56057 13.9622 3.4744 13.9106C3.38561 13.8384 3.27905 13.8211 3.17316 13.8211H3.06003C3.03434 13.8277 3.01023 13.8394 2.98914 13.8556C2.96805 13.8718 2.95041 13.8921 2.93727 13.9152C2.92413 13.9384 2.91577 13.964 2.91268 13.9906C2.90958 14.0171 2.91183 14.0439 2.91927 14.0696L2.95347 14.2458C2.9811 14.3352 2.97386 14.4392 2.92979 14.5286C2.88572 14.618 2.89559 14.7048 2.95347 14.7943L3.00806 14.8632C3.07647 14.9698 3.18302 15.0599 3.27182 15.146C3.35733 15.2354 3.44678 15.3222 3.51518 15.4395L3.64871 15.6773C3.67762 15.7363 3.72259 15.7858 3.77837 15.82C3.83415 15.8543 3.89845 15.8719 3.96376 15.8707C4.094 15.8707 4.22752 15.9158 4.33013 16.0019L4.59388 16.2503C4.66558 16.3126 4.76884 16.3225 4.84054 16.2675L4.88526 16.2503C4.93657 16.2503 4.97077 16.2847 4.97077 16.3397V16.3848C4.97077 16.4987 5.05956 16.6054 5.1727 16.6471L5.56668 16.7365C5.70744 16.7816 5.84754 16.826 5.98106 16.9127H6.04947C6.06718 16.9127 6.08469 16.9089 6.10082 16.9015C6.11695 16.8941 6.13134 16.8833 6.14304 16.8699C6.15473 16.8565 6.16346 16.8408 6.16865 16.8237C6.17383 16.8067 6.17536 16.7887 6.17312 16.771V16.4636C6.17312 16.3742 6.20732 16.2841 6.27902 16.2496L6.32374 16.2324C6.36518 16.2496 6.40925 16.2841 6.39215 16.3218V16.4702C6.39215 16.5842 6.42635 16.6908 6.50528 16.7703C6.54262 16.8102 6.59068 16.8383 6.64359 16.8511C6.6965 16.8639 6.75198 16.8609 6.80324 16.8425C6.90914 16.7975 7.01569 16.7875 7.12882 16.7975L7.4544 16.8147C7.61226 16.8319 7.7596 16.8147 7.89312 16.7524C8.05098 16.7008 8.18121 16.6279 8.30421 16.5318L8.35551 16.4974L8.61927 16.2596C8.70041 16.1755 8.81132 16.1271 8.92775 16.1251H9.27701C9.36584 16.1133 9.44839 16.0725 9.51205 16.009C9.57571 15.9454 9.61698 15.8627 9.62956 15.7733L9.66376 15.5971C9.66376 15.4799 9.71507 15.3765 9.79399 15.2865C9.88279 15.197 9.96895 15.1447 10.0577 15.1102L10.1636 15.0652C10.238 15.0325 10.3045 14.9842 10.3588 14.9235C10.4131 14.8629 10.454 14.7912 10.4787 14.7134L10.53 14.4995C10.5747 14.3233 10.6635 14.1477 10.7938 14.0338L10.8109 14.0132C10.9168 13.9271 10.9345 13.7509 10.8655 13.627L10.8378 13.5648C10.8071 13.5152 10.7886 13.4591 10.7838 13.4009C10.779 13.3427 10.7881 13.2842 10.8102 13.2302C10.8549 13.1057 10.899 12.999 10.9681 12.8924L11.0569 12.7679C11.0911 12.699 11.0911 12.5916 11.0398 12.53C10.9841 12.4605 10.9529 12.3743 10.951 12.2849L10.9339 12.1604V11.8603C10.9469 11.7617 10.9375 11.6613 10.9062 11.5669L10.872 11.4635L10.8681 11.4364ZM9.61443 10.7633V10.7395C9.61443 10.65 9.55984 10.5977 9.49078 10.5977H9.26122C9.1799 10.615 9.0959 10.615 9.01457 10.5977H8.62058C8.41865 10.5977 8.22659 10.56 8.03453 10.5083L7.82208 10.4566L7.64712 10.4016L7.25313 10.2705C7.15201 10.2414 7.05818 10.191 6.97789 10.1225C6.8976 10.0541 6.83268 9.96929 6.78745 9.87366L6.74273 9.78424C6.6809 9.65307 6.55067 9.58087 6.42043 9.60803C6.26981 9.60803 6.12248 9.60803 5.98172 9.53913L5.87582 9.49409C5.67389 9.40466 5.52656 9.22845 5.52656 8.99063L5.48907 8.75282C5.46539 8.62828 5.38646 8.515 5.27991 8.46996C5.15662 8.41285 5.03864 8.3448 4.92736 8.26659L4.88592 8.23877C4.74727 8.13193 4.64053 7.98868 4.57744 7.82474L4.56034 7.77307C4.5152 7.63003 4.50929 7.47737 4.54324 7.33123L4.56034 7.27624C4.59454 7.1623 4.60506 7.04836 4.60506 6.92449C4.60374 6.8141 4.55932 6.70868 4.48141 6.63103L4.35775 6.51709C4.28775 6.46013 4.23051 6.38889 4.18981 6.30805C4.14911 6.22722 4.12587 6.13862 4.12162 6.04808C4.10155 5.85961 4.10731 5.66925 4.13872 5.48236V5.43069C4.13855 5.38401 4.12006 5.33929 4.08729 5.30628C4.05451 5.27328 4.01011 5.25465 3.96376 5.25448H3.93614C3.82301 5.25448 3.72698 5.32337 3.67238 5.43069C3.62875 5.54768 3.56359 5.65533 3.48032 5.748L3.44612 5.79304L3.18237 6.05868C3.09357 6.1448 3.04161 6.27927 3.02451 6.41044C3.00809 6.54496 2.97242 6.67638 2.91861 6.80061L2.90151 6.84566C2.85917 6.9509 2.78941 7.04267 2.69958 7.1113C2.65647 7.14444 2.62098 7.18658 2.59555 7.23484C2.57012 7.28309 2.55535 7.33631 2.55225 7.39084L2.53515 7.79824C2.53515 7.97445 2.50752 8.15331 2.44635 8.32952L2.42925 8.39841C2.40681 8.45175 2.40526 8.51167 2.42491 8.56611C2.44456 8.62056 2.48394 8.66549 2.53515 8.69187L2.90151 8.85086L2.93571 8.86808C2.96334 8.86808 2.9732 8.88531 2.98044 8.91313C3.00806 8.94758 2.98044 8.99925 2.95281 8.99925L2.86731 9.04429C2.816 9.06152 2.77851 9.1165 2.76141 9.17877L2.74431 9.26488V9.28211L2.65551 9.77894C2.63841 9.84783 2.63841 9.92732 2.63841 10.0068C2.63847 10.0409 2.64856 10.0742 2.66741 10.1025C2.68626 10.1308 2.71302 10.1528 2.74431 10.1658L2.93637 10.2552C3.02517 10.3069 3.13172 10.3692 3.20013 10.4314L3.28892 10.5036C3.31633 10.5397 3.35138 10.5691 3.39153 10.5898L3.42902 10.6242C3.48942 10.6781 3.53248 10.7489 3.55268 10.8276L3.63818 11.2244C3.63818 11.331 3.72698 11.4211 3.81314 11.445L3.9539 11.49C3.9539 11.49 3.98152 11.49 3.99862 11.5072L4.17358 11.5622C4.31434 11.6073 4.43734 11.6868 4.54389 11.7901C4.64979 11.8795 4.75306 11.9935 4.84185 12.118L4.87605 12.1525C4.94775 12.2419 5.05101 12.2869 5.15691 12.2591C5.26281 12.2313 5.37594 12.2247 5.48907 12.2247H5.62259C5.7081 12.2247 5.82452 12.2485 5.92055 12.3108C6.00605 12.3658 6.12248 12.4002 6.22574 12.4453H6.25337C6.30363 12.4655 6.35808 12.473 6.41189 12.467C6.46571 12.461 6.51722 12.4417 6.56185 12.4108C6.65148 12.3397 6.76281 12.302 6.87691 12.3042L7.288 12.328C7.37679 12.328 7.46295 12.3108 7.50702 12.2419H7.52412L7.67475 12.1001L7.71947 12.0551C7.75419 12.015 7.79679 11.9827 7.84457 11.9601C7.89236 11.9375 7.94428 11.9252 7.99704 11.9239H8.39432C8.49693 11.9239 8.59625 11.8345 8.63768 11.7477C8.66072 11.7015 8.694 11.6613 8.73494 11.6302C8.77589 11.5991 8.82341 11.5778 8.87381 11.5682L9.05206 11.5337C9.12047 11.5337 9.18229 11.4715 9.20992 11.392C9.23088 11.31 9.27634 11.2364 9.34015 11.1813L9.48091 11.0396C9.56117 10.9649 9.61422 10.8653 9.63153 10.7567L9.61443 10.7633Z" fill="white"/>
</svg>
