<svg width="23" height="21" viewBox="0 0 23 21" fill="none" xmlns="http://www.w3.org/2000/svg">
<path d="M11.209 0C9.73705 0 8.27947 0.278333 6.91953 0.819108C5.55959 1.35988 4.32391 2.15251 3.28305 3.15173C1.18095 5.16975 0 7.90677 0 10.7607C0 15.5169 3.217 19.5522 7.66699 20.9833C8.22744 21.0694 8.40678 20.7358 8.40678 20.4453V18.6267C5.30188 19.2724 4.64054 17.1848 4.64054 17.1848C4.12493 15.9366 3.39634 15.603 3.39634 15.603C2.37632 14.9358 3.4748 14.9573 3.4748 14.9573C4.59571 15.0327 5.18979 16.0657 5.18979 16.0657C6.16498 17.7013 7.8127 17.2171 8.45162 16.9588C8.5525 16.2594 8.84394 15.7859 9.15779 15.5169C6.66938 15.2479 4.05767 14.3225 4.05767 10.2226C4.05767 9.02821 4.48362 8.07051 5.21221 7.3065C5.10012 7.03749 4.7078 5.91838 5.3243 4.46568C5.3243 4.46568 6.26586 4.17515 8.40678 5.56327C9.2923 5.32654 10.2563 5.20817 11.209 5.20817C12.1618 5.20817 13.1258 5.32654 14.0113 5.56327C16.1522 4.17515 17.0938 4.46568 17.0938 4.46568C17.7103 5.91838 17.318 7.03749 17.2059 7.3065C17.9345 8.07051 18.3604 9.02821 18.3604 10.2226C18.3604 14.3332 15.7375 15.2371 13.2379 15.5061C13.6414 15.8397 14.0113 16.4961 14.0113 17.4969V20.4453C14.0113 20.7358 14.1907 21.0802 14.7623 20.9833C19.2123 19.5414 22.4181 15.5169 22.4181 10.7607C22.4181 9.34757 22.1282 7.94829 21.5649 6.64275C21.0015 5.3372 20.1759 4.15095 19.135 3.15173C18.0942 2.15251 16.8585 1.35988 15.4986 0.819108C14.1386 0.278333 12.681 0 11.209 0Z" fill="white"/>
</svg>
