<svg width="21" height="23" viewBox="0 0 21 23" fill="none" xmlns="http://www.w3.org/2000/svg">
<path d="M10.0541 13.7097H19.3072M6.87604 6.92076L13.0435 1M15.7701 18.0256L12.8066 20.8859C12.4409 21.239 12.006 21.5192 11.5271 21.7104C11.0482 21.9016 10.5346 22 10.0159 22C9.4972 22 8.98363 21.9016 8.5047 21.7104C8.02576 21.5192 7.59093 21.239 7.22518 20.8859L2.57399 16.4006C1.83356 15.6854 1.41797 14.718 1.41797 13.7097C1.41797 12.7013 1.83356 11.7339 2.57399 11.0187L7.22518 6.53346C7.59093 6.18037 8.02576 5.90017 8.5047 5.70897C8.98363 5.51777 9.4972 5.41933 10.0159 5.41933C10.5346 5.41933 11.0482 5.51777 11.5271 5.70897C12.006 5.90017 12.4409 6.18037 12.8066 6.53346L15.6467 9.27295" stroke="white" stroke-width="2" stroke-linecap="round" stroke-linejoin="round"/>
</svg>
