<svg width="22" height="21" viewBox="0 0 22 21" fill="none" xmlns="http://www.w3.org/2000/svg">
<path d="M18.974 0C19.5929 0 20.1864 0.245833 20.624 0.683417C21.0615 1.121 21.3074 1.71449 21.3074 2.33333V18.6667C21.3074 19.2855 21.0615 19.879 20.624 20.3166C20.1864 20.7542 19.5929 21 18.974 21H2.64071C2.02187 21 1.42838 20.7542 0.99079 20.3166C0.553206 19.879 0.307373 19.2855 0.307373 18.6667V2.33333C0.307373 1.71449 0.553206 1.121 0.99079 0.683417C1.42838 0.245833 2.02187 0 2.64071 0H18.974ZM18.3907 18.0833V11.9C18.3907 10.8913 17.99 9.9239 17.2767 9.21064C16.5635 8.49737 15.5961 8.09667 14.5874 8.09667C13.5957 8.09667 12.4407 8.70333 11.8807 9.61333V8.31833H8.62571V18.0833H11.8807V12.3317C11.8807 11.4333 12.604 10.6983 13.5024 10.6983C13.9356 10.6983 14.351 10.8704 14.6573 11.1767C14.9636 11.483 15.1357 11.8985 15.1357 12.3317V18.0833H18.3907ZM4.83404 6.48667C5.35386 6.48667 5.8524 6.28017 6.21997 5.9126C6.58754 5.54502 6.79404 5.04649 6.79404 4.52667C6.79404 3.44167 5.91904 2.555 4.83404 2.555C4.31112 2.555 3.80962 2.76273 3.43986 3.13249C3.0701 3.50225 2.86237 4.00375 2.86237 4.52667C2.86237 5.61167 3.74904 6.48667 4.83404 6.48667ZM6.45571 18.0833V8.31833H3.22404V18.0833H6.45571Z" fill="white"/>
</svg>
